<?xml version="1.0" encoding="utf-8"?>
<svg xmlns="http://www.w3.org/2000/svg" xmlns:xlink="http://www.w3.org/1999/xlink" width="600" height="400" viewBox="0 0 2400 1600">
<defs>
  <clipPath id="clip340">
    <rect x="0" y="0" width="2400" height="1600"/>
  </clipPath>
</defs>
<path clip-path="url(#clip340)" d="M0 1600 L2400 1600 L2400 0 L0 0  Z" fill="#ffffff" fill-rule="evenodd" fill-opacity="1"/>
<defs>
  <clipPath id="clip341">
    <rect x="480" y="0" width="1681" height="1600"/>
  </clipPath>
</defs>
<path clip-path="url(#clip340)" d="M192.393 1486.45 L2271.24 1486.45 L2271.24 47.2441 L192.393 47.2441  Z" fill="#ffffff" fill-rule="evenodd" fill-opacity="1"/>
<defs>
  <clipPath id="clip342">
    <rect x="192" y="47" width="2080" height="1440"/>
  </clipPath>
</defs>
<polyline clip-path="url(#clip342)" style="stroke:#000000; stroke-linecap:round; stroke-linejoin:round; stroke-width:2; stroke-opacity:0.1; fill:none" points="352.305,1486.45 352.305,47.2441 "/>
<polyline clip-path="url(#clip342)" style="stroke:#000000; stroke-linecap:round; stroke-linejoin:round; stroke-width:2; stroke-opacity:0.1; fill:none" points="752.084,1486.45 752.084,47.2441 "/>
<polyline clip-path="url(#clip342)" style="stroke:#000000; stroke-linecap:round; stroke-linejoin:round; stroke-width:2; stroke-opacity:0.1; fill:none" points="1151.86,1486.45 1151.86,47.2441 "/>
<polyline clip-path="url(#clip342)" style="stroke:#000000; stroke-linecap:round; stroke-linejoin:round; stroke-width:2; stroke-opacity:0.1; fill:none" points="1551.64,1486.45 1551.64,47.2441 "/>
<polyline clip-path="url(#clip342)" style="stroke:#000000; stroke-linecap:round; stroke-linejoin:round; stroke-width:2; stroke-opacity:0.1; fill:none" points="1951.42,1486.45 1951.42,47.2441 "/>
<polyline clip-path="url(#clip340)" style="stroke:#000000; stroke-linecap:round; stroke-linejoin:round; stroke-width:4; stroke-opacity:1; fill:none" points="192.393,1486.45 2271.24,1486.45 "/>
<polyline clip-path="url(#clip340)" style="stroke:#000000; stroke-linecap:round; stroke-linejoin:round; stroke-width:4; stroke-opacity:1; fill:none" points="352.305,1486.45 352.305,1467.55 "/>
<polyline clip-path="url(#clip340)" style="stroke:#000000; stroke-linecap:round; stroke-linejoin:round; stroke-width:4; stroke-opacity:1; fill:none" points="752.084,1486.45 752.084,1467.55 "/>
<polyline clip-path="url(#clip340)" style="stroke:#000000; stroke-linecap:round; stroke-linejoin:round; stroke-width:4; stroke-opacity:1; fill:none" points="1151.86,1486.45 1151.86,1467.55 "/>
<polyline clip-path="url(#clip340)" style="stroke:#000000; stroke-linecap:round; stroke-linejoin:round; stroke-width:4; stroke-opacity:1; fill:none" points="1551.64,1486.45 1551.64,1467.55 "/>
<polyline clip-path="url(#clip340)" style="stroke:#000000; stroke-linecap:round; stroke-linejoin:round; stroke-width:4; stroke-opacity:1; fill:none" points="1951.42,1486.45 1951.42,1467.55 "/>
<path clip-path="url(#clip340)" d="M329.689 1517.37 Q326.078 1517.37 324.25 1520.93 Q322.444 1524.47 322.444 1531.6 Q322.444 1538.71 324.25 1542.27 Q326.078 1545.82 329.689 1545.82 Q333.324 1545.82 335.129 1542.27 Q336.958 1538.71 336.958 1531.6 Q336.958 1524.47 335.129 1520.93 Q333.324 1517.37 329.689 1517.37 M329.689 1513.66 Q335.5 1513.66 338.555 1518.27 Q341.634 1522.85 341.634 1531.6 Q341.634 1540.33 338.555 1544.94 Q335.5 1549.52 329.689 1549.52 Q323.879 1549.52 320.801 1544.94 Q317.745 1540.33 317.745 1531.6 Q317.745 1522.85 320.801 1518.27 Q323.879 1513.66 329.689 1513.66 Z" fill="#000000" fill-rule="nonzero" fill-opacity="1" /><path clip-path="url(#clip340)" d="M349.851 1542.97 L354.736 1542.97 L354.736 1548.85 L349.851 1548.85 L349.851 1542.97 Z" fill="#000000" fill-rule="nonzero" fill-opacity="1" /><path clip-path="url(#clip340)" d="M374.921 1517.37 Q371.31 1517.37 369.481 1520.93 Q367.675 1524.47 367.675 1531.6 Q367.675 1538.71 369.481 1542.27 Q371.31 1545.82 374.921 1545.82 Q378.555 1545.82 380.36 1542.27 Q382.189 1538.71 382.189 1531.6 Q382.189 1524.47 380.36 1520.93 Q378.555 1517.37 374.921 1517.37 M374.921 1513.66 Q380.731 1513.66 383.786 1518.27 Q386.865 1522.85 386.865 1531.6 Q386.865 1540.33 383.786 1544.94 Q380.731 1549.52 374.921 1549.52 Q369.11 1549.52 366.032 1544.94 Q362.976 1540.33 362.976 1531.6 Q362.976 1522.85 366.032 1518.27 Q369.11 1513.66 374.921 1513.66 Z" fill="#000000" fill-rule="nonzero" fill-opacity="1" /><path clip-path="url(#clip340)" d="M723.82 1544.91 L740.139 1544.91 L740.139 1548.85 L718.195 1548.85 L718.195 1544.91 Q720.857 1542.16 725.44 1537.53 Q730.047 1532.88 731.227 1531.53 Q733.473 1529.01 734.352 1527.27 Q735.255 1525.51 735.255 1523.82 Q735.255 1521.07 733.311 1519.33 Q731.389 1517.6 728.288 1517.6 Q726.089 1517.6 723.635 1518.36 Q721.204 1519.13 718.427 1520.68 L718.427 1515.95 Q721.251 1514.82 723.704 1514.24 Q726.158 1513.66 728.195 1513.66 Q733.565 1513.66 736.76 1516.35 Q739.954 1519.03 739.954 1523.52 Q739.954 1525.65 739.144 1527.57 Q738.357 1529.47 736.251 1532.07 Q735.672 1532.74 732.57 1535.95 Q729.468 1539.15 723.82 1544.91 Z" fill="#000000" fill-rule="nonzero" fill-opacity="1" /><path clip-path="url(#clip340)" d="M749.954 1542.97 L754.838 1542.97 L754.838 1548.85 L749.954 1548.85 L749.954 1542.97 Z" fill="#000000" fill-rule="nonzero" fill-opacity="1" /><path clip-path="url(#clip340)" d="M765.07 1514.29 L783.426 1514.29 L783.426 1518.22 L769.352 1518.22 L769.352 1526.7 Q770.371 1526.35 771.389 1526.19 Q772.408 1526 773.426 1526 Q779.213 1526 782.593 1529.17 Q785.973 1532.34 785.973 1537.76 Q785.973 1543.34 782.5 1546.44 Q779.028 1549.52 772.709 1549.52 Q770.533 1549.52 768.264 1549.15 Q766.019 1548.78 763.612 1548.04 L763.612 1543.34 Q765.695 1544.47 767.917 1545.03 Q770.139 1545.58 772.616 1545.58 Q776.621 1545.58 778.959 1543.48 Q781.297 1541.37 781.297 1537.76 Q781.297 1534.15 778.959 1532.04 Q776.621 1529.94 772.616 1529.94 Q770.741 1529.94 768.866 1530.35 Q767.014 1530.77 765.07 1531.65 L765.07 1514.29 Z" fill="#000000" fill-rule="nonzero" fill-opacity="1" /><path clip-path="url(#clip340)" d="M1119.03 1514.29 L1137.38 1514.29 L1137.38 1518.22 L1123.31 1518.22 L1123.31 1526.7 Q1124.33 1526.35 1125.35 1526.19 Q1126.37 1526 1127.38 1526 Q1133.17 1526 1136.55 1529.17 Q1139.93 1532.34 1139.93 1537.76 Q1139.93 1543.34 1136.46 1546.44 Q1132.99 1549.52 1126.67 1549.52 Q1124.49 1549.52 1122.22 1549.15 Q1119.98 1548.78 1117.57 1548.04 L1117.57 1543.34 Q1119.65 1544.47 1121.87 1545.03 Q1124.1 1545.58 1126.57 1545.58 Q1130.58 1545.58 1132.92 1543.48 Q1135.25 1541.37 1135.25 1537.76 Q1135.25 1534.15 1132.92 1532.04 Q1130.58 1529.94 1126.57 1529.94 Q1124.7 1529.94 1122.82 1530.35 Q1120.97 1530.77 1119.03 1531.65 L1119.03 1514.29 Z" fill="#000000" fill-rule="nonzero" fill-opacity="1" /><path clip-path="url(#clip340)" d="M1149.14 1542.97 L1154.03 1542.97 L1154.03 1548.85 L1149.14 1548.85 L1149.14 1542.97 Z" fill="#000000" fill-rule="nonzero" fill-opacity="1" /><path clip-path="url(#clip340)" d="M1174.21 1517.37 Q1170.6 1517.37 1168.77 1520.93 Q1166.97 1524.47 1166.97 1531.6 Q1166.97 1538.71 1168.77 1542.27 Q1170.6 1545.82 1174.21 1545.82 Q1177.85 1545.82 1179.65 1542.27 Q1181.48 1538.71 1181.48 1531.6 Q1181.48 1524.47 1179.65 1520.93 Q1177.85 1517.37 1174.21 1517.37 M1174.21 1513.66 Q1180.02 1513.66 1183.08 1518.27 Q1186.16 1522.85 1186.16 1531.6 Q1186.16 1540.33 1183.08 1544.94 Q1180.02 1549.52 1174.21 1549.52 Q1168.4 1549.52 1165.32 1544.94 Q1162.27 1540.33 1162.27 1531.6 Q1162.27 1522.85 1165.32 1518.27 Q1168.4 1513.66 1174.21 1513.66 Z" fill="#000000" fill-rule="nonzero" fill-opacity="1" /><path clip-path="url(#clip340)" d="M1517.96 1514.29 L1540.18 1514.29 L1540.18 1516.28 L1527.64 1548.85 L1522.75 1548.85 L1534.56 1518.22 L1517.96 1518.22 L1517.96 1514.29 Z" fill="#000000" fill-rule="nonzero" fill-opacity="1" /><path clip-path="url(#clip340)" d="M1549.3 1542.97 L1554.19 1542.97 L1554.19 1548.85 L1549.3 1548.85 L1549.3 1542.97 Z" fill="#000000" fill-rule="nonzero" fill-opacity="1" /><path clip-path="url(#clip340)" d="M1564.42 1514.29 L1582.78 1514.29 L1582.78 1518.22 L1568.7 1518.22 L1568.7 1526.7 Q1569.72 1526.35 1570.74 1526.19 Q1571.76 1526 1572.78 1526 Q1578.56 1526 1581.94 1529.17 Q1585.32 1532.34 1585.32 1537.76 Q1585.32 1543.34 1581.85 1546.44 Q1578.38 1549.52 1572.06 1549.52 Q1569.88 1549.52 1567.61 1549.15 Q1565.37 1548.78 1562.96 1548.04 L1562.96 1543.34 Q1565.04 1544.47 1567.27 1545.03 Q1569.49 1545.58 1571.97 1545.58 Q1575.97 1545.58 1578.31 1543.48 Q1580.65 1541.37 1580.65 1537.76 Q1580.65 1534.15 1578.31 1532.04 Q1575.97 1529.94 1571.97 1529.94 Q1570.09 1529.94 1568.22 1530.35 Q1566.36 1530.77 1564.42 1531.65 L1564.42 1514.29 Z" fill="#000000" fill-rule="nonzero" fill-opacity="1" /><path clip-path="url(#clip340)" d="M1903.49 1544.91 L1911.13 1544.91 L1911.13 1518.55 L1902.82 1520.21 L1902.82 1515.95 L1911.08 1514.29 L1915.76 1514.29 L1915.76 1544.91 L1923.4 1544.91 L1923.4 1548.85 L1903.49 1548.85 L1903.49 1544.91 Z" fill="#000000" fill-rule="nonzero" fill-opacity="1" /><path clip-path="url(#clip340)" d="M1942.84 1517.37 Q1939.23 1517.37 1937.4 1520.93 Q1935.6 1524.47 1935.6 1531.6 Q1935.6 1538.71 1937.4 1542.27 Q1939.23 1545.82 1942.84 1545.82 Q1946.48 1545.82 1948.28 1542.27 Q1950.11 1538.71 1950.11 1531.6 Q1950.11 1524.47 1948.28 1520.93 Q1946.48 1517.37 1942.84 1517.37 M1942.84 1513.66 Q1948.65 1513.66 1951.71 1518.27 Q1954.79 1522.85 1954.79 1531.6 Q1954.79 1540.33 1951.71 1544.94 Q1948.65 1549.52 1942.84 1549.52 Q1937.03 1549.52 1933.96 1544.94 Q1930.9 1540.33 1930.9 1531.6 Q1930.9 1522.85 1933.96 1518.27 Q1937.03 1513.66 1942.84 1513.66 Z" fill="#000000" fill-rule="nonzero" fill-opacity="1" /><path clip-path="url(#clip340)" d="M1963.01 1542.97 L1967.89 1542.97 L1967.89 1548.85 L1963.01 1548.85 L1963.01 1542.97 Z" fill="#000000" fill-rule="nonzero" fill-opacity="1" /><path clip-path="url(#clip340)" d="M1988.08 1517.37 Q1984.46 1517.37 1982.64 1520.93 Q1980.83 1524.47 1980.83 1531.6 Q1980.83 1538.71 1982.64 1542.27 Q1984.46 1545.82 1988.08 1545.82 Q1991.71 1545.82 1993.51 1542.27 Q1995.34 1538.71 1995.34 1531.6 Q1995.34 1524.47 1993.51 1520.93 Q1991.71 1517.37 1988.08 1517.37 M1988.08 1513.66 Q1993.89 1513.66 1996.94 1518.27 Q2000.02 1522.85 2000.02 1531.6 Q2000.02 1540.33 1996.94 1544.94 Q1993.89 1549.52 1988.08 1549.52 Q1982.27 1549.52 1979.19 1544.94 Q1976.13 1540.33 1976.13 1531.6 Q1976.13 1522.85 1979.19 1518.27 Q1982.27 1513.66 1988.08 1513.66 Z" fill="#000000" fill-rule="nonzero" fill-opacity="1" /><polyline clip-path="url(#clip342)" style="stroke:#000000; stroke-linecap:round; stroke-linejoin:round; stroke-width:2; stroke-opacity:0.1; fill:none" points="192.393,1486.45 2271.24,1486.45 "/>
<polyline clip-path="url(#clip342)" style="stroke:#000000; stroke-linecap:round; stroke-linejoin:round; stroke-width:2; stroke-opacity:0.1; fill:none" points="192.393,1006.71 2271.24,1006.71 "/>
<polyline clip-path="url(#clip342)" style="stroke:#000000; stroke-linecap:round; stroke-linejoin:round; stroke-width:2; stroke-opacity:0.1; fill:none" points="192.393,526.979 2271.24,526.979 "/>
<polyline clip-path="url(#clip342)" style="stroke:#000000; stroke-linecap:round; stroke-linejoin:round; stroke-width:2; stroke-opacity:0.1; fill:none" points="192.393,47.2441 2271.24,47.2441 "/>
<polyline clip-path="url(#clip340)" style="stroke:#000000; stroke-linecap:round; stroke-linejoin:round; stroke-width:4; stroke-opacity:1; fill:none" points="192.393,1486.45 192.393,47.2441 "/>
<polyline clip-path="url(#clip340)" style="stroke:#000000; stroke-linecap:round; stroke-linejoin:round; stroke-width:4; stroke-opacity:1; fill:none" points="192.393,1486.45 209.917,1486.45 "/>
<polyline clip-path="url(#clip340)" style="stroke:#000000; stroke-linecap:round; stroke-linejoin:round; stroke-width:4; stroke-opacity:1; fill:none" points="192.393,1006.71 209.917,1006.71 "/>
<polyline clip-path="url(#clip340)" style="stroke:#000000; stroke-linecap:round; stroke-linejoin:round; stroke-width:4; stroke-opacity:1; fill:none" points="192.393,526.979 209.917,526.979 "/>
<polyline clip-path="url(#clip340)" style="stroke:#000000; stroke-linecap:round; stroke-linejoin:round; stroke-width:4; stroke-opacity:1; fill:none" points="192.393,47.2441 209.917,47.2441 "/>
<path clip-path="url(#clip340)" d="M144.449 1472.25 Q140.838 1472.25 139.009 1475.81 Q137.204 1479.35 137.204 1486.48 Q137.204 1493.59 139.009 1497.15 Q140.838 1500.7 144.449 1500.7 Q148.083 1500.7 149.889 1497.15 Q151.718 1493.59 151.718 1486.48 Q151.718 1479.35 149.889 1475.81 Q148.083 1472.25 144.449 1472.25 M144.449 1468.54 Q150.259 1468.54 153.315 1473.15 Q156.393 1477.73 156.393 1486.48 Q156.393 1495.21 153.315 1499.82 Q150.259 1504.4 144.449 1504.4 Q138.639 1504.4 135.56 1499.82 Q132.505 1495.21 132.505 1486.48 Q132.505 1477.73 135.56 1473.15 Q138.639 1468.54 144.449 1468.54 Z" fill="#000000" fill-rule="nonzero" fill-opacity="1" /><path clip-path="url(#clip340)" d="M149.264 1005.36 Q152.62 1006.08 154.495 1008.35 Q156.393 1010.61 156.393 1013.95 Q156.393 1019.06 152.875 1021.86 Q149.356 1024.66 142.875 1024.66 Q140.699 1024.66 138.384 1024.22 Q136.093 1023.81 133.639 1022.95 L133.639 1018.44 Q135.583 1019.57 137.898 1020.15 Q140.213 1020.73 142.736 1020.73 Q147.134 1020.73 149.426 1018.99 Q151.741 1017.26 151.741 1013.95 Q151.741 1010.89 149.588 1009.18 Q147.458 1007.44 143.639 1007.44 L139.611 1007.44 L139.611 1003.6 L143.824 1003.6 Q147.273 1003.6 149.102 1002.23 Q150.931 1000.85 150.931 998.253 Q150.931 995.591 149.032 994.179 Q147.157 992.743 143.639 992.743 Q141.718 992.743 139.519 993.16 Q137.319 993.577 134.681 994.456 L134.681 990.29 Q137.343 989.549 139.657 989.179 Q141.995 988.808 144.056 988.808 Q149.38 988.808 152.481 991.239 Q155.583 993.646 155.583 997.767 Q155.583 1000.64 153.94 1002.63 Q152.296 1004.6 149.264 1005.36 Z" fill="#000000" fill-rule="nonzero" fill-opacity="1" /><path clip-path="url(#clip340)" d="M144.866 525.115 Q141.718 525.115 139.866 527.268 Q138.037 529.421 138.037 533.171 Q138.037 536.898 139.866 539.074 Q141.718 541.226 144.866 541.226 Q148.014 541.226 149.843 539.074 Q151.694 536.898 151.694 533.171 Q151.694 529.421 149.843 527.268 Q148.014 525.115 144.866 525.115 M154.148 510.463 L154.148 514.722 Q152.389 513.888 150.583 513.449 Q148.801 513.009 147.042 513.009 Q142.412 513.009 139.958 516.134 Q137.528 519.259 137.181 525.578 Q138.546 523.564 140.606 522.5 Q142.667 521.412 145.144 521.412 Q150.352 521.412 153.361 524.583 Q156.393 527.731 156.393 533.171 Q156.393 538.495 153.245 541.712 Q150.097 544.93 144.866 544.93 Q138.87 544.93 135.699 540.347 Q132.528 535.74 132.528 527.013 Q132.528 518.819 136.417 513.958 Q140.306 509.074 146.856 509.074 Q148.616 509.074 150.398 509.421 Q152.204 509.768 154.148 510.463 Z" fill="#000000" fill-rule="nonzero" fill-opacity="1" /><path clip-path="url(#clip340)" d="M134.773 63.8065 L134.773 59.5473 Q136.532 60.3806 138.338 60.8204 Q140.144 61.2602 141.88 61.2602 Q146.509 61.2602 148.94 58.1584 Q151.393 55.0334 151.741 48.6908 Q150.398 50.6816 148.338 51.7464 Q146.278 52.8112 143.778 52.8112 Q138.593 52.8112 135.56 49.6862 Q132.551 46.5381 132.551 41.0983 Q132.551 35.7742 135.699 32.5567 Q138.847 29.3391 144.079 29.3391 Q150.074 29.3391 153.222 33.9456 Q156.393 38.5289 156.393 47.2788 Q156.393 55.4501 152.505 60.3343 Q148.639 65.1954 142.088 65.1954 Q140.329 65.1954 138.523 64.8482 Q136.718 64.5009 134.773 63.8065 M144.079 49.1538 Q147.227 49.1538 149.056 47.001 Q150.907 44.8483 150.907 41.0983 Q150.907 37.3715 149.056 35.2187 Q147.227 33.0428 144.079 33.0428 Q140.931 33.0428 139.079 35.2187 Q137.25 37.3715 137.25 41.0983 Q137.25 44.8483 139.079 47.001 Q140.931 49.1538 144.079 49.1538 Z" fill="#000000" fill-rule="nonzero" fill-opacity="1" /><path clip-path="url(#clip342)" d="M1391.73 926.758 L1390.44 886.189 L1386.58 845.783 L1380.17 805.704 L1371.23 766.112 L1359.79 727.167 L1345.91 689.025 L1329.64 651.841 L1311.04 615.764 L1290.19 580.939 L1267.17 547.506 L1242.08 515.601 L1215.02 485.351 L1186.09 456.879 L1155.41 430.298 L1123.11 405.717 L1089.32 383.234 L1054.17 362.939 L1017.8 344.915 L980.365 329.233 L942.008 315.958 L902.886 305.142 L863.157 296.829 L822.981 291.053 L782.519 287.836 L741.935 287.192 L701.392 289.123 L661.053 293.622 L621.08 300.67 L581.635 310.24 L542.876 322.291 L504.96 336.777 L468.038 353.639 L432.261 372.808 L397.771 394.207 L364.708 417.752 L333.205 443.345 L303.388 470.885 L275.378 500.261 L249.288 531.355 L225.222 564.04 L203.278 598.186 L183.544 633.655 L166.099 670.304 L151.013 707.986 L138.348 746.548 L128.154 785.837 L120.472 825.693 L115.334 865.955 L112.76 906.463 L112.76 947.052 L115.334 987.56 L120.472 1027.82 L128.154 1067.68 L138.348 1106.97 L151.013 1145.53 L166.099 1183.21 L183.544 1219.86 L203.278 1255.33 L225.222 1289.48 L249.288 1322.16 L275.378 1353.25 L303.388 1382.63 L333.205 1410.17 L364.708 1435.76 L397.771 1459.31 L432.261 1480.71 L468.038 1499.88 L504.96 1516.74 L542.876 1531.22 L581.635 1543.28 L621.08 1552.84 L661.053 1559.89 L701.392 1564.39 L741.935 1566.32 L782.519 1565.68 L822.981 1562.46 L863.157 1556.69 L902.886 1548.37 L942.008 1537.56 L980.365 1524.28 L1017.8 1508.6 L1054.17 1490.58 L1089.32 1470.28 L1123.11 1447.8 L1155.41 1423.22 L1186.09 1396.64 L1215.02 1368.16 L1242.08 1337.91 L1267.17 1306.01 L1290.19 1272.58 L1311.04 1237.75 L1329.64 1201.67 L1345.91 1164.49 L1359.79 1126.35 L1371.23 1087.4 L1380.17 1047.81 L1386.58 1007.73 L1390.44 967.326 L1391.73 926.758 L1391.73 926.758  Z" fill="#000000" fill-rule="evenodd" fill-opacity="0"/>
<polyline clip-path="url(#clip342)" style="stroke:#009af9; stroke-linecap:round; stroke-linejoin:round; stroke-width:4; stroke-opacity:1; fill:none" points="1391.73,926.758 1390.44,886.189 1386.58,845.783 1380.17,805.704 1371.23,766.112 1359.79,727.167 1345.91,689.025 1329.64,651.841 1311.04,615.764 1290.19,580.939 1267.17,547.506 1242.08,515.601 1215.02,485.351 1186.09,456.879 1155.41,430.298 1123.11,405.717 1089.32,383.234 1054.17,362.939 1017.8,344.915 980.365,329.233 942.008,315.958 902.886,305.142 863.157,296.829 822.981,291.053 782.519,287.836 741.935,287.192 701.392,289.123 661.053,293.622 621.08,300.67 581.635,310.24 542.876,322.291 504.96,336.777 468.038,353.639 432.261,372.808 397.771,394.207 364.708,417.752 333.205,443.345 303.388,470.885 275.378,500.261 249.288,531.355 225.222,564.04 203.278,598.186 183.544,633.655 166.099,670.304 151.013,707.986 138.348,746.548 128.154,785.837 120.472,825.693 115.334,865.955 112.76,906.463 112.76,947.052 115.334,987.56 120.472,1027.82 128.154,1067.68 138.348,1106.97 151.013,1145.53 166.099,1183.21 183.544,1219.86 203.278,1255.33 225.222,1289.48 249.288,1322.16 275.378,1353.25 303.388,1382.63 333.205,1410.17 364.708,1435.76 397.771,1459.31 432.261,1480.71 468.038,1499.88 504.96,1516.74 542.876,1531.22 581.635,1543.28 621.08,1552.84 661.053,1559.89 701.392,1564.39 741.935,1566.32 782.519,1565.68 822.981,1562.46 863.157,1556.69 902.886,1548.37 942.008,1537.56 980.365,1524.28 1017.8,1508.6 1054.17,1490.58 1089.32,1470.28 1123.11,1447.8 1155.41,1423.22 1186.09,1396.64 1215.02,1368.16 1242.08,1337.91 1267.17,1306.01 1290.19,1272.58 1311.04,1237.75 1329.64,1201.67 1345.91,1164.49 1359.79,1126.35 1371.23,1087.4 1380.17,1047.81 1386.58,1007.73 1390.44,967.326 1391.73,926.758 1391.73,926.758 "/>
<path clip-path="url(#clip342)" d="M1711.55 606.934 L1710.59 576.508 L1707.69 546.204 L1702.88 516.144 L1696.18 486.45 L1687.6 457.241 L1677.19 428.635 L1664.98 400.747 L1651.03 373.689 L1635.4 347.57 L1618.13 322.496 L1599.32 298.567 L1579.02 275.88 L1557.32 254.525 L1534.32 234.59 L1510.09 216.154 L1484.75 199.292 L1458.38 184.071 L1431.11 170.553 L1403.03 158.791 L1374.26 148.835 L1344.92 140.723 L1315.12 134.488 L1284.99 130.156 L1254.65 127.743 L1224.21 127.26 L1193.8 128.709 L1163.55 132.083 L1133.57 137.369 L1103.98 144.546 L1074.91 153.585 L1046.48 164.449 L1018.78 177.095 L991.951 191.472 L966.084 207.522 L941.286 225.18 L917.659 244.375 L895.297 265.03 L874.289 287.062 L854.722 310.382 L836.672 334.896 L820.214 360.506 L805.413 387.107 L792.329 414.594 L781.015 442.856 L771.516 471.778 L763.871 501.244 L758.11 531.136 L754.256 561.333 L752.325 591.713 L752.325 622.155 L754.256 652.536 L758.11 682.733 L763.871 712.625 L771.516 742.091 L781.015 771.013 L792.329 799.275 L805.413 826.762 L820.214 853.363 L836.672 878.973 L854.722 903.487 L874.289 926.807 L895.297 948.839 L917.659 969.494 L941.286 988.689 L966.084 1006.35 L991.951 1022.4 L1018.78 1036.77 L1046.48 1049.42 L1074.91 1060.28 L1103.98 1069.32 L1133.57 1076.5 L1163.55 1081.79 L1193.8 1085.16 L1224.21 1086.61 L1254.65 1086.13 L1284.99 1083.71 L1315.12 1079.38 L1344.92 1073.15 L1374.26 1065.03 L1403.03 1055.08 L1431.11 1043.32 L1458.38 1029.8 L1484.75 1014.58 L1510.09 997.715 L1534.32 979.279 L1557.32 959.344 L1579.02 937.989 L1599.32 915.302 L1618.13 891.373 L1635.4 866.299 L1651.03 840.18 L1664.98 813.122 L1677.19 785.234 L1687.6 756.628 L1696.18 727.419 L1702.88 697.725 L1707.69 667.665 L1710.59 637.361 L1711.55 606.934 L1711.55 606.934  Z" fill="#000000" fill-rule="evenodd" fill-opacity="0"/>
<polyline clip-path="url(#clip342)" style="stroke:#e26f46; stroke-linecap:round; stroke-linejoin:round; stroke-width:4; stroke-opacity:1; fill:none" points="1711.55,606.934 1710.59,576.508 1707.69,546.204 1702.88,516.144 1696.18,486.45 1687.6,457.241 1677.19,428.635 1664.98,400.747 1651.03,373.689 1635.4,347.57 1618.13,322.496 1599.32,298.567 1579.02,275.88 1557.32,254.525 1534.32,234.59 1510.09,216.154 1484.75,199.292 1458.38,184.071 1431.11,170.553 1403.03,158.791 1374.26,148.835 1344.92,140.723 1315.12,134.488 1284.99,130.156 1254.65,127.743 1224.21,127.26 1193.8,128.709 1163.55,132.083 1133.57,137.369 1103.98,144.546 1074.91,153.585 1046.48,164.449 1018.78,177.095 991.951,191.472 966.084,207.522 941.286,225.18 917.659,244.375 895.297,265.03 874.289,287.062 854.722,310.382 836.672,334.896 820.214,360.506 805.413,387.107 792.329,414.594 781.015,442.856 771.516,471.778 763.871,501.244 758.11,531.136 754.256,561.333 752.325,591.713 752.325,622.155 754.256,652.536 758.11,682.733 763.871,712.625 771.516,742.091 781.015,771.013 792.329,799.275 805.413,826.762 820.214,853.363 836.672,878.973 854.722,903.487 874.289,926.807 895.297,948.839 917.659,969.494 941.286,988.689 966.084,1006.35 991.951,1022.4 1018.78,1036.77 1046.48,1049.42 1074.91,1060.28 1103.98,1069.32 1133.57,1076.5 1163.55,1081.79 1193.8,1085.16 1224.21,1086.61 1254.65,1086.13 1284.99,1083.71 1315.12,1079.38 1344.92,1073.15 1374.26,1065.03 1403.03,1055.08 1431.11,1043.32 1458.38,1029.8 1484.75,1014.58 1510.09,997.715 1534.32,979.279 1557.32,959.344 1579.02,937.989 1599.32,915.302 1618.13,891.373 1635.4,866.299 1651.03,840.18 1664.98,813.122 1677.19,785.234 1687.6,756.628 1696.18,727.419 1702.88,697.725 1707.69,667.665 1710.59,637.361 1711.55,606.934 1711.55,606.934 "/>
<path clip-path="url(#clip342)" d="M1567.63 606.934 L1566.96 585.636 L1564.93 564.423 L1561.56 543.381 L1556.87 522.595 L1550.87 502.149 L1543.58 482.125 L1535.03 462.603 L1525.27 443.663 L1514.32 425.38 L1502.24 407.828 L1489.07 391.077 L1474.86 375.196 L1459.67 360.248 L1443.57 346.293 L1426.61 333.388 L1408.87 321.585 L1390.41 310.93 L1371.32 301.467 L1351.67 293.234 L1331.53 286.265 L1310.99 280.586 L1290.13 276.222 L1269.04 273.189 L1247.8 271.501 L1226.49 271.163 L1205.21 272.176 L1184.03 274.538 L1163.04 278.239 L1142.33 283.263 L1121.98 289.59 L1102.08 297.195 L1082.69 306.047 L1063.91 316.111 L1045.8 327.346 L1028.45 339.706 L1011.91 353.143 L996.253 367.602 L981.548 383.024 L967.851 399.348 L955.216 416.508 L943.695 434.434 L933.335 453.055 L924.176 472.296 L916.256 492.079 L909.607 512.325 L904.255 532.951 L900.222 553.875 L897.525 575.013 L896.173 596.28 L896.173 617.589 L897.525 638.856 L900.222 659.994 L904.255 680.918 L909.607 701.544 L916.256 721.79 L924.176 741.573 L933.335 760.813 L943.695 779.435 L955.216 797.361 L967.851 814.521 L981.548 830.845 L996.253 846.267 L1011.91 860.726 L1028.45 874.163 L1045.8 886.523 L1063.91 897.758 L1082.69 907.822 L1102.08 916.674 L1121.98 924.279 L1142.33 930.606 L1163.04 935.63 L1184.03 939.331 L1205.21 941.692 L1226.49 942.706 L1247.8 942.368 L1269.04 940.68 L1290.13 937.647 L1310.99 933.283 L1331.53 927.604 L1351.67 920.635 L1371.32 912.402 L1390.41 902.939 L1408.87 892.284 L1426.61 880.481 L1443.57 867.575 L1459.67 853.621 L1474.86 838.673 L1489.07 822.792 L1502.24 806.041 L1514.32 788.489 L1525.27 770.206 L1535.03 751.266 L1543.58 731.744 L1550.87 711.72 L1556.87 691.274 L1561.56 670.488 L1564.93 649.446 L1566.96 628.233 L1567.63 606.934 L1567.63 606.934  Z" fill="#000000" fill-rule="evenodd" fill-opacity="0"/>
<polyline clip-path="url(#clip342)" style="stroke:#e26f46; stroke-linecap:round; stroke-linejoin:round; stroke-width:4; stroke-opacity:1; fill:none" points="1567.63,606.934 1566.96,585.636 1564.93,564.423 1561.56,543.381 1556.87,522.595 1550.87,502.149 1543.58,482.125 1535.03,462.603 1525.27,443.663 1514.32,425.38 1502.24,407.828 1489.07,391.077 1474.86,375.196 1459.67,360.248 1443.57,346.293 1426.61,333.388 1408.87,321.585 1390.41,310.93 1371.32,301.467 1351.67,293.234 1331.53,286.265 1310.99,280.586 1290.13,276.222 1269.04,273.189 1247.8,271.501 1226.49,271.163 1205.21,272.176 1184.03,274.538 1163.04,278.239 1142.33,283.263 1121.98,289.59 1102.08,297.195 1082.69,306.047 1063.91,316.111 1045.8,327.346 1028.45,339.706 1011.91,353.143 996.253,367.602 981.548,383.024 967.851,399.348 955.216,416.508 943.695,434.434 933.335,453.055 924.176,472.296 916.256,492.079 909.607,512.325 904.255,532.951 900.222,553.875 897.525,575.013 896.173,596.28 896.173,617.589 897.525,638.856 900.222,659.994 904.255,680.918 909.607,701.544 916.256,721.79 924.176,741.573 933.335,760.813 943.695,779.435 955.216,797.361 967.851,814.521 981.548,830.845 996.253,846.267 1011.91,860.726 1028.45,874.163 1045.8,886.523 1063.91,897.758 1082.69,907.822 1102.08,916.674 1121.98,924.279 1142.33,930.606 1163.04,935.63 1184.03,939.331 1205.21,941.692 1226.49,942.706 1247.8,942.368 1269.04,940.68 1290.13,937.647 1310.99,933.283 1331.53,927.604 1351.67,920.635 1371.32,912.402 1390.41,902.939 1408.87,892.284 1426.61,880.481 1443.57,867.575 1459.67,853.621 1474.86,838.673 1489.07,822.792 1502.24,806.041 1514.32,788.489 1525.27,770.206 1535.03,751.266 1543.58,731.744 1550.87,711.72 1556.87,691.274 1561.56,670.488 1564.93,649.446 1566.96,628.233 1567.63,606.934 1567.63,606.934 "/>
<path clip-path="url(#clip342)" d="M1788.39 559.09 L1780.28 552.195 L1766.75 548.74 L1747.84 548.739 L1723.64 552.192 L1694.24 559.084 L1659.75 569.389 L1620.32 583.065 L1576.11 600.056 L1527.29 620.294 L1474.07 643.699 L1416.64 670.174 L1355.26 699.615 L1290.16 731.902 L1221.6 766.905 L1149.86 804.484 L1075.24 844.487 L998.026 886.752 L918.534 931.111 L837.084 977.384 L754.004 1025.38 L669.628 1074.92 L584.297 1125.79 L498.353 1177.79 L412.144 1230.71 L326.015 1284.34 L240.314 1338.46 L155.386 1392.86 L71.573 1447.31 L-10.7877 1501.59 L-91.3644 1555.5 L-169.833 1608.8 L-245.877 1661.29 L-319.19 1712.75 L-389.477 1762.98 L-456.456 1811.77 L-519.856 1858.93 L-579.422 1904.27 L-634.914 1947.61 L-686.11 1988.76 L-732.802 2027.58 L-774.803 2063.89 L-811.943 2097.55 L-844.073 2128.43 L-871.064 2156.41 L-892.807 2181.36 L-909.215 2203.2 L-920.221 2221.82 L-925.78 2237.17 L-925.872 2249.16 L-920.495 2257.77 L-909.67 2262.95 L-893.442 2264.68 L-871.876 2262.95 L-845.059 2257.77 L-813.099 2249.17 L-776.123 2237.18 L-734.283 2221.83 L-687.744 2203.21 L-636.696 2181.38 L-581.344 2156.43 L-521.91 2128.45 L-458.634 2097.57 L-391.771 2063.91 L-321.59 2027.6 L-248.373 1988.79 L-172.415 1947.64 L-94.0232 1904.3 L-13.5117 1858.96 L68.7947 1811.8 L152.565 1763.01 L237.461 1712.78 L323.141 1661.32 L409.261 1608.83 L495.474 1555.53 L581.432 1501.63 L666.789 1447.34 L751.202 1392.89 L834.331 1338.5 L915.841 1284.38 L995.404 1230.75 L1072.7 1177.83 L1147.41 1125.82 L1219.25 1074.95 L1287.92 1025.42 L1353.14 977.416 L1414.65 931.142 L1472.21 886.782 L1525.58 844.515 L1574.55 804.51 L1618.92 766.93 L1658.51 731.925 L1693.16 699.636 L1722.74 670.193 L1747.12 643.716 L1766.2 620.309 L1779.92 600.069 L1788.2 583.075 L1791.03 569.397 L1788.39 559.09 L1788.39 559.09  Z" fill="#000000" fill-rule="evenodd" fill-opacity="0"/>
<polyline clip-path="url(#clip342)" style="stroke:#3da44d; stroke-linecap:round; stroke-linejoin:round; stroke-width:4; stroke-opacity:1; fill:none" points="1788.39,559.09 1780.28,552.195 1766.75,548.74 1747.84,548.739 1723.64,552.192 1694.24,559.084 1659.75,569.389 1620.32,583.065 1576.11,600.056 1527.29,620.294 1474.07,643.699 1416.64,670.174 1355.26,699.615 1290.16,731.902 1221.6,766.905 1149.86,804.484 1075.24,844.487 998.026,886.752 918.534,931.111 837.084,977.384 754.004,1025.38 669.628,1074.92 584.297,1125.79 498.353,1177.79 412.144,1230.71 326.015,1284.34 240.314,1338.46 155.386,1392.86 71.573,1447.31 -10.7877,1501.59 -91.3644,1555.5 -169.833,1608.8 -245.877,1661.29 -319.19,1712.75 -389.477,1762.98 -456.456,1811.77 -519.856,1858.93 -579.422,1904.27 -634.914,1947.61 -686.11,1988.76 -732.802,2027.58 -774.803,2063.89 -811.943,2097.55 -844.073,2128.43 -871.064,2156.41 -892.807,2181.36 -909.215,2203.2 -920.221,2221.82 -925.78,2237.17 -925.872,2249.16 -920.495,2257.77 -909.67,2262.95 -893.442,2264.68 -871.876,2262.95 -845.059,2257.77 -813.099,2249.17 -776.123,2237.18 -734.283,2221.83 -687.744,2203.21 -636.696,2181.38 -581.344,2156.43 -521.91,2128.45 -458.634,2097.57 -391.771,2063.91 -321.59,2027.6 -248.373,1988.79 -172.415,1947.64 -94.0232,1904.3 -13.5117,1858.96 68.7947,1811.8 152.565,1763.01 237.461,1712.78 323.141,1661.32 409.261,1608.83 495.474,1555.53 581.432,1501.63 666.789,1447.34 751.202,1392.89 834.331,1338.5 915.841,1284.38 995.404,1230.75 1072.7,1177.83 1147.41,1125.82 1219.25,1074.95 1287.92,1025.42 1353.14,977.416 1414.65,931.142 1472.21,886.782 1525.58,844.515 1574.55,804.51 1618.92,766.93 1658.51,731.925 1693.16,699.636 1722.74,670.193 1747.12,643.716 1766.2,620.309 1779.92,600.069 1788.2,583.075 1791.03,569.397 1788.39,559.09 "/>
<path clip-path="url(#clip342)" d="M1909.88 1030.64 L1919.27 1012.58 L1925.88 992.892 L1929.7 971.649 L1930.71 948.938 L1928.91 924.849 L1924.3 899.481 L1916.9 872.934 L1906.74 845.316 L1893.87 816.739 L1878.33 787.317 L1860.18 757.168 L1839.51 726.414 L1816.39 695.18 L1790.91 663.59 L1763.19 631.772 L1733.32 599.853 L1701.44 567.964 L1667.66 536.231 L1632.13 504.783 L1594.99 473.746 L1556.38 443.246 L1516.47 413.405 L1475.41 384.343 L1433.37 356.177 L1390.52 329.021 L1347.03 302.984 L1303.08 278.171 L1258.83 254.682 L1214.48 232.611 L1170.2 212.047 L1126.17 193.074 L1082.57 175.767 L1039.56 160.196 L997.33 146.424 L956.043 134.506 L915.866 124.491 L876.962 116.418 L839.486 110.321 L803.59 106.223 L769.419 104.141 L737.11 104.084 L706.792 106.051 L678.589 110.036 L652.613 116.021 L628.97 123.983 L607.754 133.89 L589.05 145.702 L572.936 159.37 L559.474 174.841 L548.719 192.052 L540.715 210.934 L535.494 231.41 L533.077 253.398 L533.473 276.809 L536.682 301.55 L542.689 327.521 L551.471 354.617 L562.993 382.728 L577.208 411.743 L594.059 441.543 L613.478 472.01 L635.386 503.02 L659.697 534.448 L686.311 566.168 L715.121 598.052 L746.012 629.972 L778.86 661.799 L813.531 693.405 L849.886 724.664 L887.78 755.448 L927.059 785.634 L967.565 815.1 L1009.13 843.728 L1051.6 871.403 L1094.79 898.013 L1138.54 923.451 L1182.66 947.614 L1226.97 970.406 L1271.31 991.734 L1315.49 1011.51 L1359.33 1029.66 L1402.66 1046.11 L1445.3 1060.79 L1487.08 1073.64 L1527.83 1084.61 L1567.39 1093.66 L1605.6 1100.75 L1642.31 1105.85 L1677.36 1108.94 L1710.61 1110.01 L1741.94 1109.05 L1771.22 1106.08 L1798.32 1101.09 L1823.14 1094.11 L1845.58 1085.17 L1865.55 1074.31 L1882.97 1061.56 L1897.77 1046.98 L1909.88 1030.64 L1909.88 1030.64  Z" fill="#000000" fill-rule="evenodd" fill-opacity="0"/>
<polyline clip-path="url(#clip342)" style="stroke:#c271d2; stroke-linecap:round; stroke-linejoin:round; stroke-width:4; stroke-opacity:1; fill:none" points="1909.88,1030.64 1919.27,1012.58 1925.88,992.892 1929.7,971.649 1930.71,948.938 1928.91,924.849 1924.3,899.481 1916.9,872.934 1906.74,845.316 1893.87,816.739 1878.33,787.317 1860.18,757.168 1839.51,726.414 1816.39,695.18 1790.91,663.59 1763.19,631.772 1733.32,599.853 1701.44,567.964 1667.66,536.231 1632.13,504.783 1594.99,473.746 1556.38,443.246 1516.47,413.405 1475.41,384.343 1433.37,356.177 1390.52,329.021 1347.03,302.984 1303.08,278.171 1258.83,254.682 1214.48,232.611 1170.2,212.047 1126.17,193.074 1082.57,175.767 1039.56,160.196 997.33,146.424 956.043,134.506 915.866,124.491 876.962,116.418 839.486,110.321 803.59,106.223 769.419,104.141 737.11,104.084 706.792,106.051 678.589,110.036 652.613,116.021 628.97,123.983 607.754,133.89 589.05,145.702 572.936,159.37 559.474,174.841 548.719,192.052 540.715,210.934 535.494,231.41 533.077,253.398 533.473,276.809 536.682,301.55 542.689,327.521 551.471,354.617 562.993,382.728 577.208,411.743 594.059,441.543 613.478,472.01 635.386,503.02 659.697,534.448 686.311,566.168 715.121,598.052 746.012,629.972 778.86,661.799 813.531,693.405 849.886,724.664 887.78,755.448 927.059,785.634 967.565,815.1 1009.13,843.728 1051.6,871.403 1094.79,898.013 1138.54,923.451 1182.66,947.614 1226.97,970.406 1271.31,991.734 1315.49,1011.51 1359.33,1029.66 1402.66,1046.11 1445.3,1060.79 1487.08,1073.64 1527.83,1084.61 1567.39,1093.66 1605.6,1100.75 1642.31,1105.85 1677.36,1108.94 1710.61,1110.01 1741.94,1109.05 1771.22,1106.08 1798.32,1101.09 1823.14,1094.11 1845.58,1085.17 1865.55,1074.31 1882.97,1061.56 1897.77,1046.98 1909.88,1030.64 1909.88,1030.64 "/>
<path clip-path="url(#clip342)" d="M1774.27 945.895 L1781.78 931.451 L1787.07 915.7 L1790.13 898.706 L1790.93 880.537 L1789.49 861.266 L1785.8 840.971 L1779.88 819.734 L1771.76 797.64 L1761.46 774.778 L1749.03 751.24 L1734.51 727.121 L1717.97 702.518 L1699.48 677.531 L1679.1 652.259 L1656.91 626.804 L1633.02 601.27 L1607.51 575.758 L1580.49 550.372 L1552.07 525.213 L1522.35 500.384 L1491.47 475.984 L1459.54 452.111 L1426.69 428.861 L1393.06 406.328 L1358.78 384.604 L1323.99 363.774 L1288.82 343.924 L1253.43 325.132 L1217.95 307.476 L1182.53 291.025 L1147.3 275.846 L1112.42 262 L1078.01 249.544 L1044.23 238.526 L1011.2 228.992 L979.057 220.98 L947.933 214.521 L917.953 209.643 L889.236 206.365 L861.899 204.7 L836.051 204.654 L811.797 206.228 L789.235 209.416 L768.454 214.204 L749.539 220.574 L732.567 228.499 L717.604 237.948 L704.712 248.883 L693.943 261.26 L685.339 275.029 L678.936 290.134 L674.759 306.515 L672.825 324.105 L673.142 342.834 L675.709 362.627 L680.515 383.404 L687.541 405.08 L696.758 427.57 L708.13 450.781 L721.611 474.622 L737.146 498.995 L754.673 523.803 L774.121 548.945 L795.412 574.321 L818.461 599.828 L843.174 625.364 L869.451 650.826 L897.188 676.111 L926.273 701.118 L956.588 725.745 L988.011 749.894 L1020.42 773.467 L1053.67 796.37 L1087.64 818.509 L1122.2 839.797 L1157.19 860.148 L1192.49 879.478 L1227.94 897.711 L1263.41 914.774 L1298.76 930.597 L1333.83 945.116 L1368.49 958.274 L1402.6 970.017 L1436.03 980.298 L1468.63 989.076 L1500.28 996.314 L1530.84 1001.99 L1560.21 1006.07 L1588.25 1008.54 L1614.85 1009.39 L1639.92 1008.63 L1663.34 1006.25 L1685.02 1002.26 L1704.88 996.676 L1722.83 989.525 L1738.81 980.834 L1752.74 970.636 L1764.58 958.975 L1774.27 945.895 L1774.27 945.895  Z" fill="#000000" fill-rule="evenodd" fill-opacity="0"/>
<polyline clip-path="url(#clip342)" style="stroke:#c271d2; stroke-linecap:round; stroke-linejoin:round; stroke-width:4; stroke-opacity:1; fill:none" points="1774.27,945.895 1781.78,931.451 1787.07,915.7 1790.13,898.706 1790.93,880.537 1789.49,861.266 1785.8,840.971 1779.88,819.734 1771.76,797.64 1761.46,774.778 1749.03,751.24 1734.51,727.121 1717.97,702.518 1699.48,677.531 1679.1,652.259 1656.91,626.804 1633.02,601.27 1607.51,575.758 1580.49,550.372 1552.07,525.213 1522.35,500.384 1491.47,475.984 1459.54,452.111 1426.69,428.861 1393.06,406.328 1358.78,384.604 1323.99,363.774 1288.82,343.924 1253.43,325.132 1217.95,307.476 1182.53,291.025 1147.3,275.846 1112.42,262 1078.01,249.544 1044.23,238.526 1011.2,228.992 979.057,220.98 947.933,214.521 917.953,209.643 889.236,206.365 861.899,204.7 836.051,204.654 811.797,206.228 789.235,209.416 768.454,214.204 749.539,220.574 732.567,228.499 717.604,237.948 704.712,248.883 693.943,261.26 685.339,275.029 678.936,290.134 674.759,306.515 672.825,324.105 673.142,342.834 675.709,362.627 680.515,383.404 687.541,405.08 696.758,427.57 708.13,450.781 721.611,474.622 737.146,498.995 754.673,523.803 774.121,548.945 795.412,574.321 818.461,599.828 843.174,625.364 869.451,650.826 897.188,676.111 926.273,701.118 956.588,725.745 988.011,749.894 1020.42,773.467 1053.67,796.37 1087.64,818.509 1122.2,839.797 1157.19,860.148 1192.49,879.478 1227.94,897.711 1263.41,914.774 1298.76,930.597 1333.83,945.116 1368.49,958.274 1402.6,970.017 1436.03,980.298 1468.63,989.076 1500.28,996.314 1530.84,1001.99 1560.21,1006.07 1588.25,1008.54 1614.85,1009.39 1639.92,1008.63 1663.34,1006.25 1685.02,1002.26 1704.88,996.676 1722.83,989.525 1738.81,980.834 1752.74,970.636 1764.58,958.975 1774.27,945.895 "/>
<path clip-path="url(#clip342)" d="M728.995 1065.14 L729.174 1067.71 L729.71 1075.36 L730.593 1087.99 L731.809 1105.39 L733.339 1127.27 L735.158 1153.28 L737.237 1183.01 L739.542 1215.97 L742.037 1251.65 L744.681 1289.45 L747.431 1328.78 L750.243 1369 L753.073 1409.47 L755.874 1449.52 L758.602 1488.53 L761.212 1525.86 L763.663 1560.91 L765.914 1593.11 L767.931 1621.95 L769.681 1646.97 L771.134 1667.76 L772.269 1683.99 L773.066 1695.39 L773.513 1701.78 L773.454 1703.24 L769.607 1703.51 L760.691 1704.13 L746.849 1705.1 L728.305 1706.39 L705.356 1708 L678.372 1709.89 L647.787 1712.03 L614.092 1714.38 L577.832 1716.92 L539.587 1719.59 L499.975 1722.36 L459.632 1725.18 L419.208 1728.01 L379.353 1730.8 L340.708 1733.5 L303.895 1736.07 L269.507 1738.48 L238.096 1740.67 L210.169 1742.63 L186.174 1744.3 L166.497 1745.68 L151.456 1746.73 L141.292 1747.44 L136.169 1747.8 L135.482 1747.2 L135.123 1742.08 L134.413 1731.92 L133.361 1716.88 L131.985 1697.2 L130.307 1673.2 L128.354 1645.28 L126.158 1613.87 L123.753 1579.48 L121.179 1542.66 L118.476 1504.02 L115.69 1464.16 L112.863 1423.74 L110.042 1383.4 L107.272 1343.78 L104.597 1305.54 L102.062 1269.28 L99.7058 1235.59 L97.567 1205 L95.6801 1178.02 L94.0754 1155.07 L92.7786 1136.52 L91.8107 1122.68 L91.1873 1113.77 L90.9183 1109.92 L92.3517 1109.66 L98.746 1109.21 L110.148 1108.41 L126.373 1107.28 L147.162 1105.82 L172.179 1104.07 L201.022 1102.06 L233.226 1099.81 L268.274 1097.36 L305.602 1094.74 L344.609 1092.02 L384.667 1089.22 L425.132 1086.39 L465.352 1083.57 L504.682 1080.82 L542.487 1078.18 L578.159 1075.69 L611.125 1073.38 L640.854 1071.3 L666.868 1069.48 L688.747 1067.95 L706.141 1066.74 L718.769 1065.85 L726.428 1065.32 L728.995 1065.14 L728.995 1065.14  Z" fill="#000000" fill-rule="evenodd" fill-opacity="0"/>
<polyline clip-path="url(#clip342)" style="stroke:#ac8d18; stroke-linecap:round; stroke-linejoin:round; stroke-width:4; stroke-opacity:1; fill:none" points="728.995,1065.14 729.174,1067.71 729.71,1075.36 730.593,1087.99 731.809,1105.39 733.339,1127.27 735.158,1153.28 737.237,1183.01 739.542,1215.97 742.037,1251.65 744.681,1289.45 747.431,1328.78 750.243,1369 753.073,1409.47 755.874,1449.52 758.602,1488.53 761.212,1525.86 763.663,1560.91 765.914,1593.11 767.931,1621.95 769.681,1646.97 771.134,1667.76 772.269,1683.99 773.066,1695.39 773.513,1701.78 773.454,1703.24 769.607,1703.51 760.691,1704.13 746.849,1705.1 728.305,1706.39 705.356,1708 678.372,1709.89 647.787,1712.03 614.092,1714.38 577.832,1716.92 539.587,1719.59 499.975,1722.36 459.632,1725.18 419.208,1728.01 379.353,1730.8 340.708,1733.5 303.895,1736.07 269.507,1738.48 238.096,1740.67 210.169,1742.63 186.174,1744.3 166.497,1745.68 151.456,1746.73 141.292,1747.44 136.169,1747.8 135.482,1747.2 135.123,1742.08 134.413,1731.92 133.361,1716.88 131.985,1697.2 130.307,1673.2 128.354,1645.28 126.158,1613.87 123.753,1579.48 121.179,1542.66 118.476,1504.02 115.69,1464.16 112.863,1423.74 110.042,1383.4 107.272,1343.78 104.597,1305.54 102.062,1269.28 99.7058,1235.59 97.567,1205 95.6801,1178.02 94.0754,1155.07 92.7786,1136.52 91.8107,1122.68 91.1873,1113.77 90.9183,1109.92 92.3517,1109.66 98.746,1109.21 110.148,1108.41 126.373,1107.28 147.162,1105.82 172.179,1104.07 201.022,1102.06 233.226,1099.81 268.274,1097.36 305.602,1094.74 344.609,1092.02 384.667,1089.22 425.132,1086.39 465.352,1083.57 504.682,1080.82 542.487,1078.18 578.159,1075.69 611.125,1073.38 640.854,1071.3 666.868,1069.48 688.747,1067.95 706.141,1066.74 718.769,1065.85 726.428,1065.32 728.995,1065.14 "/>
<path clip-path="url(#clip342)" d="M1528.55 905.227 L1528.73 907.794 L1529.27 915.453 L1530.15 928.081 L1531.37 945.474 L1532.9 967.354 L1534.72 993.368 L1536.79 1023.1 L1539.1 1056.06 L1541.59 1091.74 L1544.24 1129.54 L1546.99 1168.87 L1549.8 1209.09 L1552.63 1249.56 L1555.43 1289.61 L1558.16 1328.62 L1560.77 1365.95 L1563.22 1401 L1565.47 1433.2 L1567.49 1462.04 L1569.24 1487.06 L1570.69 1507.85 L1571.83 1524.07 L1572.62 1535.48 L1573.07 1541.87 L1573.01 1543.33 L1569.16 1543.6 L1560.25 1544.22 L1546.41 1545.19 L1527.86 1546.48 L1504.91 1548.09 L1477.93 1549.97 L1447.34 1552.11 L1413.65 1554.47 L1377.39 1557.01 L1339.14 1559.68 L1299.53 1562.45 L1259.19 1565.27 L1218.77 1568.1 L1178.91 1570.88 L1140.27 1573.59 L1103.45 1576.16 L1069.06 1578.57 L1037.65 1580.76 L1009.73 1582.71 L985.731 1584.39 L966.055 1585.77 L951.014 1586.82 L940.85 1587.53 L935.726 1587.89 L935.039 1587.29 L934.681 1582.17 L933.97 1572 L932.918 1556.96 L931.543 1537.29 L929.865 1513.29 L927.912 1485.36 L925.715 1453.95 L923.311 1419.57 L920.736 1382.75 L918.034 1344.11 L915.247 1304.25 L912.42 1263.83 L909.599 1223.49 L906.829 1183.87 L904.155 1145.63 L901.62 1109.37 L899.263 1075.67 L897.125 1045.09 L895.238 1018.1 L893.633 995.156 L892.336 976.611 L891.368 962.77 L890.745 953.854 L890.476 950.007 L891.909 949.745 L898.304 949.298 L909.705 948.501 L925.931 947.366 L946.72 945.913 L971.737 944.163 L1000.58 942.146 L1032.78 939.894 L1067.83 937.444 L1105.16 934.833 L1144.17 932.106 L1184.22 929.305 L1224.69 926.475 L1264.91 923.663 L1304.24 920.912 L1342.04 918.269 L1377.72 915.774 L1410.68 913.469 L1440.41 911.39 L1466.43 909.571 L1488.31 908.041 L1505.7 906.825 L1518.33 905.942 L1525.99 905.406 L1528.55 905.227 L1528.55 905.227  Z" fill="#000000" fill-rule="evenodd" fill-opacity="0"/>
<polyline clip-path="url(#clip342)" style="stroke:#00a9ad; stroke-linecap:round; stroke-linejoin:round; stroke-width:4; stroke-opacity:1; fill:none" points="1528.55,905.227 1528.73,907.794 1529.27,915.453 1530.15,928.081 1531.37,945.474 1532.9,967.354 1534.72,993.368 1536.79,1023.1 1539.1,1056.06 1541.59,1091.74 1544.24,1129.54 1546.99,1168.87 1549.8,1209.09 1552.63,1249.56 1555.43,1289.61 1558.16,1328.62 1560.77,1365.95 1563.22,1401 1565.47,1433.2 1567.49,1462.04 1569.24,1487.06 1570.69,1507.85 1571.83,1524.07 1572.62,1535.48 1573.07,1541.87 1573.01,1543.33 1569.16,1543.6 1560.25,1544.22 1546.41,1545.19 1527.86,1546.48 1504.91,1548.09 1477.93,1549.97 1447.34,1552.11 1413.65,1554.47 1377.39,1557.01 1339.14,1559.68 1299.53,1562.45 1259.19,1565.27 1218.77,1568.1 1178.91,1570.88 1140.27,1573.59 1103.45,1576.16 1069.06,1578.57 1037.65,1580.76 1009.73,1582.71 985.731,1584.39 966.055,1585.77 951.014,1586.82 940.85,1587.53 935.726,1587.89 935.039,1587.29 934.681,1582.17 933.97,1572 932.918,1556.96 931.543,1537.29 929.865,1513.29 927.912,1485.36 925.715,1453.95 923.311,1419.57 920.736,1382.75 918.034,1344.11 915.247,1304.25 912.42,1263.83 909.599,1223.49 906.829,1183.87 904.155,1145.63 901.62,1109.37 899.263,1075.67 897.125,1045.09 895.238,1018.1 893.633,995.156 892.336,976.611 891.368,962.77 890.745,953.854 890.476,950.007 891.909,949.745 898.304,949.298 909.705,948.501 925.931,947.366 946.72,945.913 971.737,944.163 1000.58,942.146 1032.78,939.894 1067.83,937.444 1105.16,934.833 1144.17,932.106 1184.22,929.305 1224.69,926.475 1264.91,923.663 1304.24,920.912 1342.04,918.269 1377.72,915.774 1410.68,913.469 1440.41,911.39 1466.43,909.571 1488.31,908.041 1505.7,906.825 1518.33,905.942 1525.99,905.406 1528.55,905.227 "/>
<path clip-path="url(#clip342)" d="M1454.37 990.565 L1454.5 992.49 L1454.91 998.235 L1455.57 1007.71 L1456.48 1020.75 L1457.63 1037.16 L1458.99 1056.67 L1460.55 1078.97 L1462.28 1103.69 L1464.15 1130.45 L1466.13 1158.8 L1468.2 1188.3 L1470.31 1218.46 L1472.43 1248.81 L1474.53 1278.86 L1476.57 1308.11 L1478.53 1336.11 L1480.37 1362.39 L1482.06 1386.55 L1483.57 1408.18 L1484.88 1426.94 L1485.97 1442.53 L1486.82 1454.7 L1487.42 1463.25 L1487.76 1468.05 L1487.71 1469.14 L1484.83 1469.34 L1478.14 1469.81 L1467.76 1470.53 L1453.85 1471.51 L1436.64 1472.71 L1416.4 1474.13 L1393.46 1475.73 L1368.19 1477.5 L1341 1479.4 L1312.31 1481.4 L1282.6 1483.48 L1252.35 1485.6 L1222.03 1487.72 L1192.14 1489.81 L1163.15 1491.84 L1135.54 1493.77 L1109.75 1495.57 L1086.19 1497.22 L1065.25 1498.68 L1047.25 1499.94 L1032.5 1500.97 L1021.21 1501.76 L1013.59 1502.29 L1009.75 1502.56 L1009.23 1502.11 L1008.97 1498.27 L1008.43 1490.65 L1007.64 1479.37 L1006.61 1464.61 L1005.35 1446.61 L1003.89 1425.67 L1002.24 1402.11 L1000.44 1376.32 L998.507 1348.71 L996.48 1319.73 L994.39 1289.83 L992.27 1259.52 L990.154 1229.26 L988.077 1199.55 L986.071 1170.87 L984.169 1143.67 L982.402 1118.4 L980.798 1095.46 L979.383 1075.22 L978.179 1058.01 L977.207 1044.1 L976.481 1033.72 L976.013 1027.04 L975.812 1024.15 L976.887 1023.95 L981.682 1023.62 L990.234 1023.02 L1002.4 1022.17 L1017.99 1021.08 L1036.76 1019.77 L1058.39 1018.25 L1082.54 1016.57 L1108.83 1014.73 L1136.82 1012.77 L1166.08 1010.72 L1196.12 1008.62 L1226.47 1006.5 L1256.64 1004.39 L1286.13 1002.33 L1314.49 1000.35 L1341.24 998.476 L1365.97 996.747 L1388.26 995.188 L1407.77 993.824 L1424.18 992.676 L1437.23 991.764 L1446.7 991.102 L1452.44 990.7 L1454.37 990.565 L1454.37 990.565  Z" fill="#000000" fill-rule="evenodd" fill-opacity="0"/>
<polyline clip-path="url(#clip342)" style="stroke:#00a9ad; stroke-linecap:round; stroke-linejoin:round; stroke-width:4; stroke-opacity:1; fill:none" points="1454.37,990.565 1454.5,992.49 1454.91,998.235 1455.57,1007.71 1456.48,1020.75 1457.63,1037.16 1458.99,1056.67 1460.55,1078.97 1462.28,1103.69 1464.15,1130.45 1466.13,1158.8 1468.2,1188.3 1470.31,1218.46 1472.43,1248.81 1474.53,1278.86 1476.57,1308.11 1478.53,1336.11 1480.37,1362.39 1482.06,1386.55 1483.57,1408.18 1484.88,1426.94 1485.97,1442.53 1486.82,1454.7 1487.42,1463.25 1487.76,1468.05 1487.71,1469.14 1484.83,1469.34 1478.14,1469.81 1467.76,1470.53 1453.85,1471.51 1436.64,1472.71 1416.4,1474.13 1393.46,1475.73 1368.19,1477.5 1341,1479.4 1312.31,1481.4 1282.6,1483.48 1252.35,1485.6 1222.03,1487.72 1192.14,1489.81 1163.15,1491.84 1135.54,1493.77 1109.75,1495.57 1086.19,1497.22 1065.25,1498.68 1047.25,1499.94 1032.5,1500.97 1021.21,1501.76 1013.59,1502.29 1009.75,1502.56 1009.23,1502.11 1008.97,1498.27 1008.43,1490.65 1007.64,1479.37 1006.61,1464.61 1005.35,1446.61 1003.89,1425.67 1002.24,1402.11 1000.44,1376.32 998.507,1348.71 996.48,1319.73 994.39,1289.83 992.27,1259.52 990.154,1229.26 988.077,1199.55 986.071,1170.87 984.169,1143.67 982.402,1118.4 980.798,1095.46 979.383,1075.22 978.179,1058.01 977.207,1044.1 976.481,1033.72 976.013,1027.04 975.812,1024.15 976.887,1023.95 981.682,1023.62 990.234,1023.02 1002.4,1022.17 1017.99,1021.08 1036.76,1019.77 1058.39,1018.25 1082.54,1016.57 1108.83,1014.73 1136.82,1012.77 1166.08,1010.72 1196.12,1008.62 1226.47,1006.5 1256.64,1004.39 1286.13,1002.33 1314.49,1000.35 1341.24,998.476 1365.97,996.747 1388.26,995.188 1407.77,993.824 1424.18,992.676 1437.23,991.764 1446.7,991.102 1452.44,990.7 1454.37,990.565 "/>
</svg>
